<?xml version="1.0" encoding="utf-8"?>
<!-- Generator: Adobe Illustrator 15.1.0, SVG Export Plug-In . SVG Version: 6.00 Build 0)  -->
<!DOCTYPE svg PUBLIC "-//W3C//DTD SVG 1.1//EN" "http://www.w3.org/Graphics/SVG/1.1/DTD/svg11.dtd">
<svg version="1.1" id="Layer_1" xmlns="http://www.w3.org/2000/svg" xmlns:xlink="http://www.w3.org/1999/xlink" x="0px" y="0px"
	 width="180px" height="144px" viewBox="0 0 180 144" enable-background="new 0 0 180 144" xml:space="preserve">
<path fill="#999999" d="M90.0156,91.4297c-12.5449,0-22.7109,2.2051-22.7109,4.9258c0,2.7188,22.7109,10.4766,22.7109,10.4766
	s22.7119-7.7578,22.7119-10.4766C112.7275,93.6348,102.5605,91.4297,90.0156,91.4297 M90.0156,98.5137
	c-5.9399,0-10.7578-1.043-10.7578-2.332s4.8179-2.334,10.7578-2.334c5.9414,0,10.7588,1.0449,10.7588,2.334
	S95.957,98.5137,90.0156,98.5137"/>
<path fill="#EA5C6C" d="M90.0156,37.0396c-12.5449,0-22.7109,10.166-22.7109,22.7109c0,12.5391,22.7109,48.3091,22.7109,48.3091
	s22.7119-35.77,22.7119-48.3091C112.7275,47.2056,102.5605,37.0396,90.0156,37.0396 M90.0156,69.7075
	c-5.9399,0-10.7578-4.8169-10.7578-10.7578s4.8179-10.7583,10.7578-10.7583c5.9414,0,10.7588,4.8174,10.7588,10.7583
	S95.957,69.7075,90.0156,69.7075"/>
</svg>
