<?xml version="1.0" encoding="utf-8"?>
<!-- Generator: Adobe Illustrator 15.1.0, SVG Export Plug-In . SVG Version: 6.00 Build 0)  -->
<!DOCTYPE svg PUBLIC "-//W3C//DTD SVG 1.1//EN" "http://www.w3.org/Graphics/SVG/1.1/DTD/svg11.dtd">
<svg version="1.1" id="Layer_1" xmlns="http://www.w3.org/2000/svg" xmlns:xlink="http://www.w3.org/1999/xlink" x="0px" y="0px"
	 width="180px" height="144px" viewBox="0 0 180 144" enable-background="new 0 0 180 144" xml:space="preserve">
<path fill="#2E7C9B" d="M136.8799,101.167c0,6.5039-21.1299,11.7764-47.1943,11.7764c-26.0649,0-47.1948-5.2725-47.1948-11.7764
	s21.1299-11.7764,47.1948-11.7764C115.75,89.3906,136.8799,94.6631,136.8799,101.167"/>
<rect x="52.4912" y="61.8872" fill="#EBE7DC" width="74.3887" height="39.2798"/>
<path fill="#DDDAD0" d="M126.8799,61.8867c0,3.707-16.6523,6.7119-37.1943,6.7119s-37.1948-3.0049-37.1948-6.7119
	c0-3.708,16.6528-6.7129,37.1948-6.7129S126.8799,58.1787,126.8799,61.8867"/>
<path fill="#EBE7DC" d="M126.8799,101.167c0,3.707-16.6523,6.7119-37.1943,6.7119s-37.1948-3.0049-37.1948-6.7119
	c0-3.708,16.6528-6.7129,37.1948-6.7129S126.8799,97.459,126.8799,101.167"/>
<path fill="none" stroke="#EA5C6C" stroke-width="2" stroke-linecap="round" stroke-linejoin="round" stroke-miterlimit="10" d="
	M126.8799,91.0977c0,3.707-16.6523,6.7129-37.1943,6.7129s-37.1948-3.0059-37.1948-6.7129"/>
<path fill="none" stroke="#EA5C6C" stroke-width="2" stroke-linecap="round" stroke-linejoin="round" stroke-miterlimit="10" d="
	M126.8799,78.1699c0,3.709-16.6523,6.7129-37.1943,6.7129s-37.1948-3.0039-37.1948-6.7129"/>
<path fill="none" stroke="#EA5C6C" stroke-width="2" stroke-linecap="round" stroke-linejoin="round" stroke-miterlimit="10" d="
	M126.8799,73.5215c0,3.707-16.6523,6.7119-37.1943,6.7119s-37.1948-3.0049-37.1948-6.7119"/>
<rect x="87.585" y="41.896" fill="#EA5C6C" width="2.1001" height="17.75"/>
<path fill="#E4C545" d="M91.252,38.5718c0,1.4448-1.1719,2.6162-2.6162,2.6162c-1.4438,0-2.6157-1.1714-2.6157-2.6162
	s2.6157-6.417,2.6157-6.417S91.252,37.127,91.252,38.5718"/>
</svg>
