<?xml version="1.0" encoding="utf-8"?>
<!-- Generator: Adobe Illustrator 15.1.0, SVG Export Plug-In . SVG Version: 6.00 Build 0)  -->
<!DOCTYPE svg PUBLIC "-//W3C//DTD SVG 1.1//EN" "http://www.w3.org/Graphics/SVG/1.1/DTD/svg11.dtd">
<svg version="1.1" id="Layer_1" xmlns="http://www.w3.org/2000/svg" xmlns:xlink="http://www.w3.org/1999/xlink" x="0px" y="0px"
	 width="180px" height="144px" viewBox="0 0 180 144" enable-background="new 0 0 180 144" xml:space="preserve">
<g>
	<path fill="#309BC3" d="M129.0186,66.2412c-0.4639-0.2319-1.1592-0.3867-1.624-0.6187c-0.541-0.2319-1.2373-0.4644-1.7783-0.6963
		c-0.7734-0.3091-1.5469-0.6187-2.2432-0.9277c-0.3867,1.1597-1.1602,2.3198-2.5518,3.4028
		c-3.1709,2.4746-7.1152,3.7891-11.1367,3.7891c-1.0049,0-2.0879-0.1543-3.0928-0.3091c1.2363,2.6294,2.0098,5.5679,2.0098,8.7388
		c0,3.0166-0.6953,5.9551-1.9336,8.585c-0.7725,1.623-1.8555,2.8613-2.7061,3.8662c-0.4639,0.542-1.0049,1.624-1.1602,2.0107
		c0,0.0781-0.0771-0.8506-0.0771,0.6963h37.0439c1.3145,0,3.4795-2.8613,3.4795-4.1768v-5.7998
		C143.0938,75.3672,135.8242,69.3345,129.0186,66.2412z"/>
	<path fill="#D8C291" d="M125.2295,38.7866c0,2.3975-0.3867,4.7178-1.3154,6.9604c-1.082,2.4746-2.8613,4.0215-4.4082,6.187
		c-1.3916,1.9331-1.9326,4.4082-1.9326,6.728c0,0.9282,0.0771,2.1655,0.4639,3.0161s0.3086,1.083-0.541,1.7788
		c-3.79,2.939-8.8945,3.5576-13.2246,1.5469c-1.0059-0.4644-1.8564-1.083-2.7842-1.7017c-0.8506-0.541,0.3096-1.5464,0.541-2.2427
		c0.7734-2.1655,0.3096-4.563-0.6182-6.5737c-0.8516-2.0107-2.3984-3.48-3.79-5.1812c-1.624-2.0107-2.5518-4.2539-2.9385-6.8057
		c-0.7734-4.563-0.1543-9.667,2.2422-13.6885c4.4863-7.7339,15.4678-9.3579,22.2734-3.7896
		C123.2188,28.269,125.2295,33.6055,125.2295,38.7866z"/>
	<path opacity="0.2" enable-background="new    " d="M143.0938,84.8789v5.8008c0,1.3145-2.0879,4.1758-3.4023,4.1758h-4.2539v-8.043
		c0-8.043-2.2422-15.1577-6.4961-20.2622C135.8242,69.644,143.0938,75.3672,143.0938,84.8789z"/>
	<path fill="#E2C137" d="M106.5918,102.0479c-0.3105-0.1553-1.3926-0.6182-1.7012-0.6963c-0.4648-0.1543-1.0059-0.3867-1.4707-0.541
		c-0.3086-0.0781-0.6182-0.2324-0.8496-0.3096c-1.0059,3.0166-4.0996,4.4082-5.4912,5.1045
		c-2.0889,0.9277-4.2529,1.3926-6.4971,1.3926c-1.3916,0-2.8608-0.2324-4.1753-0.542c-1.7017-0.4639-3.3257-1.2373-4.7949-2.3203
		c-1.624-1.1592-2.4751-2.3975-2.7842-3.6348c-0.6958,0.3096-1.7017,0.6182-2.4746,0.9287
		c-5.8003,2.3193-12.1421,7.3457-12.1421,15.4668v4.6406c0,1.082,1.1602,2.7832,2.2427,2.7832h48.3354
		c1.082,0,3.5566-1.7012,3.5566-2.7832v-4.6406C118.3457,109.1621,112.082,104.5996,106.5918,102.0479z"/>
	<path fill="#D8C291" d="M74.8833,70.9585c0.4644-0.9277,0.9282-1.7788,1.4697-2.5518c0.2319-0.5415,0.4639-1.083,0.7729-1.5469
		c1.3149-2.1655,3.4028-3.6348,4.4858-6.0322c1.0054-2.2427,1.4692-4.7173,1.4692-7.1924c0-4.1763-1.3145-8.3521-3.9443-11.6001
		c-5.5679-6.7285-16.395-7.1152-22.1953-0.4644c-3.0161,3.4028-4.0986,8.2749-4.0215,12.7607
		c0.0776,2.6294,0.6187,5.4136,1.9336,7.6562c1.0825,1.7788,2.6294,3.248,3.8667,4.9492c1.3149,1.8564,2.1655,4.3311,1.9336,6.5737
		c-0.0776,1.083-0.4644,2.165-1.083,3.0166c-0.5415,0.6953,1.0054,1.3916,1.4692,1.7012c3.5576,2.3203,8.1206,2.5518,11.9102,0.8506
		C73.0273,76.3721,73.646,73.5879,74.8833,70.9585z"/>
	<path opacity="0.2" enable-background="new    " d="M118.3457,116.8965v4.4854c0,1.0049-1.7012,2.8613-2.7061,2.8613h-3.248
		v-6.0322c0-6.1865-1.7021-11.5996-4.9502-15.5449C112.4688,104.9092,118.3457,109.5488,118.3457,116.8965z"/>
	<path fill="#D8C291" d="M102.957,79.543c0,1.8555-0.3105,3.7891-1.083,5.4902c-0.8506,2.0117-2.3203,3.248-3.5576,4.9502
		c-1.083,1.5469-1.5469,3.4795-1.5469,5.3359c0,0.7734,0.0781,1.7021,0.3867,2.3975c0.3096,0.6963,0.2324,0.8516-0.4639,1.3926
		c-3.0166,2.3203-7.1152,2.8613-10.5952,1.2363c-0.7734-0.3857-1.4692-0.9277-2.2427-1.3916
		c-0.6963-0.4639,0.2319-1.2373,0.3867-1.7783c0.6187-1.7012,0.2319-3.6348-0.4639-5.2588
		c-0.6963-1.5469-1.9336-2.7842-3.0161-4.0986c-1.3149-1.5469-2.0107-3.4033-2.3203-5.4141
		c-0.6187-3.6348-0.0771-7.7334,1.7788-10.9043c3.5576-6.1094,12.2959-7.5015,17.7871-3.0161
		C101.332,71.1133,102.957,75.3672,102.957,79.543z"/>
	<path fill="#EA5C6D" d="M75.5796,89.5967c-0.9282-1.5469-1.624-3.248-2.0884-4.9502c-1.856,0.6191-3.7891,0.9287-5.7227,0.9287
		c-3.4028,0-6.7285-1.0049-9.5898-2.7842c-1.0054-0.541-3.0933-1.7793-3.7896-4.3301c-1.1597,0.4629-2.397,0.9277-3.5571,1.4688
		c-7.1152,2.8613-14.3848,8.8936-14.3848,18.8701v5.6455c0,1.3145,0.6963,1.3145,2.0107,1.3145h24.2837
		c2.5522-4.6406,6.728-7.2695,12.0645-9.4355l3.1709-1.2363l1.2373-0.541c-0.3096-0.542-0.8506-1.1602-1.5469-2.0889
		C76.9717,91.5303,76.1982,90.6016,75.5796,89.5967z"/>
</g>
</svg>
