<?xml version="1.0" encoding="utf-8"?>
<!-- Generator: Adobe Illustrator 15.1.0, SVG Export Plug-In . SVG Version: 6.00 Build 0)  -->
<!DOCTYPE svg PUBLIC "-//W3C//DTD SVG 1.1//EN" "http://www.w3.org/Graphics/SVG/1.1/DTD/svg11.dtd">
<svg version="1.1" id="Layer_1" xmlns="http://www.w3.org/2000/svg" xmlns:xlink="http://www.w3.org/1999/xlink" x="0px" y="0px"
	 width="180px" height="144px" viewBox="0 0 180 144" enable-background="new 0 0 180 144" xml:space="preserve">
<path fill="#EA5C6D" d="M86.2734,56.9155c0,11.4111-9.4409,24.9126-24.6401,39.1792c-3.3159,3.1045-6.916,6.2539-10.7388,9.4287
	c-3.7642-3.1152-7.3052-6.2188-10.5742-9.2871c-15.3047-14.3145-24.8047-27.874-24.8047-39.3208
	c0-10.4668,7.729-18.6338,17.5718-18.6338c9.6641,0,14.7271,5.8887,17.3823,8.603c0.1416,0.1538,0.2949,0.3188,0.4248,0.4717
	c0.1299-0.1528,0.2832-0.3179,0.4248-0.4717c2.6553-2.7144,7.7183-8.603,17.3823-8.603
	C78.5435,38.2817,86.2734,46.4487,86.2734,56.9155"/>
<g opacity="0.15">
	<g>
		<g>
			<defs>
				<rect id="SVGID_1_" x="47.248" y="38.2939" width="39.0249" height="67.2295"/>
			</defs>
			<clipPath id="SVGID_2_">
				<use xlink:href="#SVGID_1_"  overflow="visible"/>
			</clipPath>
			<path clip-path="url(#SVGID_2_)" d="M50.8945,105.5234c-1.2393-1.0273-2.4551-2.0527-3.646-3.0684
				c20.0962-17.0166,33.124-33.3135,33.124-46.7197c0-8.0952-4.625-14.8223-11.2812-17.4409
				c9.6533,0.1997,17.1821,8.2949,17.1821,18.6211C86.2734,70.8174,72.2656,87.8223,50.8945,105.5234"/>
		</g>
	</g>
</g>
<path fill="#FFFFFF" d="M61.5273,65.4238h-7.0811v-7.0811c0-0.6509-0.5283-1.1797-1.1802-1.1797h-4.7202
	c-0.6519,0-1.1797,0.5288-1.1797,1.1797v7.0811h-7.0811c-0.6489,0-1.1802,0.5312-1.1802,1.1802v4.7202
	c0,0.6489,0.5312,1.1807,1.1802,1.1807h7.0811v7.0801c0,0.6494,0.5308,1.1807,1.1797,1.1807h4.7202
	c0.6519,0,1.1802-0.5283,1.1802-1.1807v-7.0801h7.0811c0.6489,0,1.1797-0.5317,1.1797-1.1807V66.604
	C62.707,65.9521,62.1792,65.4238,61.5273,65.4238"/>
<path fill="#D8C291" d="M154.8242,52.5415c-2.9951,5.791-3.8096,12.707-1.7666,19.4419c0.2412,0.7949,0.5137,1.5654,0.835,2.3242
	c0.3115,0.7725,0.6602,1.5342,1.0479,2.2588c-6.3174,1.502-12.8027-2.1631-14.7129-8.459
	c-1.9863-6.5459,1.7139-13.4702,8.2588-15.4561c2.1475-0.6509,4.335-0.6938,6.3838-0.2148
	C154.8535,52.4673,154.8418,52.5103,154.8242,52.5415"/>
<g opacity="0.07">
	<g>
		<g>
			<defs>
				<rect id="SVGID_3_" x="139.6914" y="52.1152" width="15.249" height="24.7871"/>
			</defs>
			<clipPath id="SVGID_4_">
				<use xlink:href="#SVGID_3_"  overflow="visible"/>
			</clipPath>
			<path clip-path="url(#SVGID_4_)" d="M154.8242,52.5415c-2.9951,5.791-3.8096,12.707-1.7666,19.4419
				c0.2412,0.7949,0.5137,1.5654,0.835,2.3242c0.3115,0.7725,0.6602,1.5342,1.0479,2.2588
				c-6.3174,1.502-12.8027-2.1631-14.7129-8.459c-1.9863-6.5459,1.7139-13.4702,8.2588-15.4561
				c2.1475-0.6509,4.335-0.6938,6.3838-0.2148C154.8535,52.4673,154.8418,52.5103,154.8242,52.5415"/>
		</g>
	</g>
</g>
<path fill="#D8C291" d="M147.5,92.5v12.4453c0,1.2979-1.6582,2.5547-2.9561,2.5547h-4.7197c-0.7441,0-1.4404-0.4512-1.8896-1.041
	l-2.124-2.4238c-0.4473-0.5898-1.1436-0.5352-1.8877-0.5352h-11.8008c-0.7432,0-1.4395-0.1035-1.8877,0.4873l-2.124,2.7002
	c-0.4492,0.5898-1.1455,0.8125-1.8887,0.8125h-4.7207c-1.2979,0-2.001-1.2568-2.001-2.5547V92.5H147.5z"/>
<g opacity="0.2">
	<g>
		<g>
			<defs>
				<rect id="SVGID_5_" x="109.5" y="93.5" width="38" height="7.9053"/>
			</defs>
			<clipPath id="SVGID_6_">
				<use xlink:href="#SVGID_5_"  overflow="visible"/>
			</clipPath>
			<path clip-path="url(#SVGID_6_)" d="M142.668,93.5h-28.8066H109.5v5.8164c4,1.3447,7.4082,2.0889,11.6211,2.0889
				c2.498,0,4.8271-0.2725,7.1367-0.7666c2.2793,0.4941,4.9316,0.7666,7.4297,0.7666c4.2129,0,7.8125-0.7441,11.8125-2.0889V93.5
				H142.668z"/>
		</g>
	</g>
</g>
<g opacity="0.15">
	<g>
		<g>
			<defs>
				<rect id="SVGID_7_" x="147.1533" y="52.541" width="7.6709" height="22.373"/>
			</defs>
			<clipPath id="SVGID_8_">
				<use xlink:href="#SVGID_7_"  overflow="visible"/>
			</clipPath>
			<path clip-path="url(#SVGID_8_)" d="M153.0576,71.9834c0.2412,0.7939,0.5146,1.5664,0.835,2.3242
				c-0.0684,0.2021-0.1211,0.4121-0.166,0.6064c-5.7383-3.0366-8.1855-10.0767-5.459-16.0713
				c1.3516-2.9731,3.7461-5.1514,6.5576-6.3013C151.8291,58.3325,151.0137,65.2485,153.0576,71.9834"/>
		</g>
	</g>
</g>
<path fill="#D8C291" d="M155.2109,71.8413c-2.9277-8.02-11.1123-14.1938-21.29-15.9429c-1.8867,1.1611-4.1064,1.8428-6.4795,1.8428
	c-2.2646,0-4.3877-0.6211-6.2168-1.687c-12.3555,2.4761-21.5225,11.5361-21.5225,22.3394c0,12.709,12.6797,23.0107,28.3213,23.0107
	c6.8047,0,13.0469-1.9512,17.9316-5.2002c0.2334-0.0879,0.498-0.2705,0.7949-0.5547c1.29-0.9248,2.4727-1.9424,3.5371-3.042
	c3.2461-2.2412,6.4111-3.0029,8.4551-3.0029c2.6074,0,4.7578-2.1143,4.7578-4.7217v-9.6367
	C160.5,75.2461,157.4893,73.7324,155.2109,71.8413"/>
<g opacity="0.07">
	<g>
		<g>
			<defs>
				<rect id="SVGID_9_" x="99.7021" y="75.4434" width="63.7979" height="25.9619"/>
			</defs>
			<clipPath id="SVGID_10_">
				<use xlink:href="#SVGID_9_"  overflow="visible"/>
			</clipPath>
			<path clip-path="url(#SVGID_10_)" d="M163.5,78.9834v5.8994c0,2.6084-2.1504,4.7217-4.7578,4.7217
				c-2.041,0-5.1875,0.7666-8.4326,2.9971c-1.0732,1.1094-2.2637,2.123-3.5498,3.0449c-0.2949,0.2832-0.5703,0.4717-0.8066,0.5537
				c-4.874,3.2568-11.1191,5.2051-17.9277,5.2051c-15.6367,0-28.3232-10.3037-28.3232-23.0127c0-1.002,0.082-1.9824,0.2344-2.9492
				c1.7822,11.3164,13.6777,20.0605,28.0869,20.0605c6.8086,0,13.0518-1.9473,17.9248-5.2031
				c0.2354-0.084,0.5078-0.2715,0.8027-0.5557c1.2861-0.9199,2.4658-1.9346,3.54-3.0439c3.2451-2.2305,6.4102-2.998,8.4512-2.998
				C161.3496,83.7031,163.5,81.5918,163.5,78.9834"/>
		</g>
	</g>
</g>
<path fill="none" stroke="#6D6D6C" stroke-width="3.54" stroke-linecap="round" stroke-miterlimit="10" d="M119.7617,62.4854
	c2.5615-0.7788,5.3467-1.2041,8.2617-1.2041s5.6992,0.4253,8.2598,1.2041"/>
<path fill="#D8C291" d="M106.7812,76.623c0,3.2588-2.6426,5.9004-5.9004,5.9004c-3.2588,0-5.9004-2.6416-5.9004-5.9004
	s2.6416-5.8999,5.9004-5.8999C104.1387,70.7231,106.7812,73.3643,106.7812,76.623"/>
<path fill="#E2C137" d="M136.5,45.3428v0.0078c0,4.8921-4.1084,8.8511-9,8.8511c-4.8838,0-9-3.959-9-8.8511v-0.0562
	c0-4.8677,4.1318-8.7949,9-8.7949C132.3916,36.4995,136.5,40.4507,136.5,45.3428"/>
<g opacity="0.15">
	<g>
		<g>
			<defs>
				<rect id="SVGID_11_" x="120.0869" y="38.0049" width="16.1963" height="16.1963"/>
			</defs>
			<clipPath id="SVGID_12_">
				<use xlink:href="#SVGID_11_"  overflow="visible"/>
			</clipPath>
			<path clip-path="url(#SVGID_12_)" d="M136.2832,45.3779c0,4.8784-3.9453,8.8232-8.8232,8.8232
				c-3.0752,0-5.7852-1.5752-7.374-3.9697c1.3877,0.9199,3.0518,1.4487,4.8535,1.4487c4.8779,0,8.8232-3.9448,8.8232-8.8228
				c0-1.8022-0.5293-3.4663-1.4492-4.853C134.707,39.5933,136.2832,42.3022,136.2832,45.3779"/>
		</g>
	</g>
</g>
<path fill="#FFFFFF" d="M145.7236,70.7227c0,1.9551-1.585,3.54-3.54,3.54s-3.541-1.585-3.541-3.54s1.5859-3.54,3.541-3.54
	S145.7236,68.7676,145.7236,70.7227"/>
</svg>
