<?xml version="1.0" encoding="utf-8"?>
<!-- Generator: Adobe Illustrator 15.1.0, SVG Export Plug-In . SVG Version: 6.00 Build 0)  -->
<!DOCTYPE svg PUBLIC "-//W3C//DTD SVG 1.1//EN" "http://www.w3.org/Graphics/SVG/1.1/DTD/svg11.dtd">
<svg version="1.1" id="Layer_1" xmlns="http://www.w3.org/2000/svg" xmlns:xlink="http://www.w3.org/1999/xlink" x="0px" y="0px"
	 width="180px" height="144px" viewBox="0 0 180 144" enable-background="new 0 0 180 144" xml:space="preserve">
<path fill="#DDDAD0" d="M123.8418,81.5703c-3.0566,0-6.0537-1.0391-8.4697-2.8096c-2.3652,1.752-5.3418,2.8096-8.5645,2.8096
	c-3.0586,0-6.0342-1.0391-8.4502-2.8096c-2.3652,1.752-5.332,2.8096-8.5552,2.8096c-3.0571,0-6.0288-1.0391-8.4438-2.8105
	c-2.3652,1.7529-5.3291,2.8105-8.5522,2.8105c-3.0571,0-6.0278-1.0391-8.4429-2.8105c-2.3652,1.7529-5.4072,2.8105-8.6299,2.8105
	c-0.7822,0-1.397-0.084-2.397-0.2129v32.0635c0,1.6064,1.459,2.5791,3.0659,2.5791h66.915c1.6064,0,3.0186-0.9727,3.0186-2.5791
	V81.3525C125.3359,81.4863,124.6748,81.5703,123.8418,81.5703"/>
<rect x="100.3359" y="89" fill="#A57C52" width="16" height="27"/>
<path fill="#FFFFFF" d="M89.8599,106.1475H63.6758V91.6006c0-1.6064,1.3022-2.9092,2.9092-2.9092h20.3662
	c1.606,0,2.9087,1.3027,2.9087,2.9092V106.1475z"/>
<rect x="108.3359" y="99" fill="#E5C645" width="5" height="7"/>
<g opacity="0.1">
	<g>
		<defs>
			<rect id="SVGID_1_" x="53.3359" y="78.7598" width="73" height="34.6904"/>
		</defs>
		<clipPath id="SVGID_2_">
			<use xlink:href="#SVGID_1_"  overflow="visible"/>
		</clipPath>
		<path clip-path="url(#SVGID_2_)" d="M123.8418,81.5703c-3.0566,0-6.0537-1.0391-8.4697-2.8096
			c-2.3652,1.752-5.3418,2.8096-8.5645,2.8096c-3.0586,0-6.0342-1.0391-8.4502-2.8096c-2.3652,1.752-5.332,2.8096-8.5552,2.8096
			c-3.0571,0-6.0288-1.0391-8.4438-2.8105c-2.3652,1.7529-5.3291,2.8105-8.5522,2.8105c-3.0571,0-6.0278-1.0391-8.4429-2.8105
			c-2.3652,1.7529-5.4072,2.8105-8.6299,2.8105c-0.7822,0-1.397-0.084-2.397-0.2129v1.5449c1-0.0146,1.5308-0.0293,2.231-0.0293
			c28.814,0,54.7686,8.4512,70.7686,30.5762V81.3525C125.3359,81.4863,124.6748,81.5703,123.8418,81.5703"/>
	</g>
</g>
<path fill="#B9B6AD" d="M125.6064,54.563L118.9531,44h-7.4893c0.1279,1,0.2168,1.7188,0.2168,2.708
	c0,12.0308-9.7891,21.7188-21.8213,21.7188c-12.0308,0-21.8198-9.6367-21.8198-21.6689c0-0.9888,0.0889-1.7578,0.2168-2.7578
	h-7.4897l-1.2222,1.8486l-13.209,21.0225v1.4546c0,4.8149,4.2339,8.728,9.5288,8.728c3.6943,0,6.8511-1.8906,8.4663-4.6689
	c1.6001,2.7783,4.7998,4.6689,8.4951,4.6689c3.6807,0,6.874-1.8906,8.4736-4.6689c1.6001,2.7783,4.811,4.6689,8.5063,4.6689
	c3.6797,0,6.8789-1.8906,8.4785-4.6689c1.6152,2.7783,4.8291,4.6689,8.5098,4.6689c3.6797,0,6.8799-1.8906,8.4941-4.6689
	c1.6006,2.7783,4.8145,4.5059,8.4951,4.5059c5.2949,0,9.6016-3.8906,9.6016-8.8906h-0.0488v-1.1289L125.6064,54.563z"/>
<path fill="#EA5C6D" d="M107.3164,46.5059c0,9.6406-7.8154,17.4561-17.4561,17.4561c-9.6411,0-17.4561-7.8154-17.4561-17.4561
	c0-9.6411,7.8149-17.4561,17.4561-17.4561C99.501,29.0498,107.3164,36.8647,107.3164,46.5059"/>
<path fill="#FFFFFF" d="M90.6152,54.9141c-0.416,0.4268-1.0928,0.4268-1.5098,0l-6.6943-6.8574
	c-1.7056-1.6865-1.7056-4.4199,0-6.106c1.7051-1.6851,4.4722-1.6851,6.1782,0l1.271,1.5273l1.2715-1.5273
	c1.7041-1.6851,4.4727-1.6851,6.1768,0c1.7061,1.686,1.7061,4.4194,0,6.106L90.6152,54.9141z"/>
</svg>
