<?xml version="1.0" encoding="utf-8"?>
<!-- Generator: Adobe Illustrator 18.1.1, SVG Export Plug-In . SVG Version: 6.00 Build 0)  -->
<svg version="1.1" id="Layer_1" xmlns="http://www.w3.org/2000/svg" xmlns:xlink="http://www.w3.org/1999/xlink" x="0px" y="0px"
	 viewBox="0 0 383 102.9" enable-background="new 0 0 383 102.9" xml:space="preserve">
<g>
	<g>
		<g>
			<path fill="#FFFFFF" d="M34.9,21.8c0,0.6-0.3,0.8-0.8,0.8h-2.2V43H34c0.5,0,0.8,0.4,0.8,0.8v1.7c0,0.5-0.2,0.8-0.7,0.8h-9.3
				c-0.5,0-0.8-0.3-0.8-0.7v-1.8c0-0.5,0.2-0.8,0.8-0.8h2.1V22.6h-2.3c-0.5,0-0.8-0.3-0.8-0.8v-1.7c0-0.4,0.2-0.8,0.7-0.8H34
				c0.5,0,0.8,0.4,0.8,0.7V21.8z"/>
			<path fill="#FFFFFF" d="M56.6,45.2c0,0.7-0.2,1-0.9,1h-2.8c-0.7,0-0.9-0.4-0.9-1V34.6c0-2.1-0.6-3.7-3-3.7
				c-1.5,0-3.4,0.8-4.6,1.9v12.4c0,0.7-0.3,1-0.9,1h-2.8c-0.6,0-0.9-0.3-0.9-0.9v-17c0-0.6,0.3-1,1-1h2.5c0.5,0,0.9,0.2,0.9,0.7l0,1
				c1.8-1.4,4-2.3,6.3-2.3c4.4,0,6.2,2.7,6.2,7V45.2z"/>
			<path fill="#FFFFFF" d="M67.1,27.4h4.4c0.5,0,0.7,0.2,0.7,0.7v1.8c0,0.5-0.3,0.7-0.8,0.7h-4.4v8.9c0,1.2,0.1,2,0.5,2.6
				c0.4,0.5,0.9,0.8,1.8,0.8c1,0,1.8-0.2,2.5-0.5c0.4-0.1,0.8-0.2,0.9,0.4l0.4,1.9c0.1,0.5-0.1,0.8-0.5,1c-1.2,0.5-2.8,0.9-4.4,0.9
				c-2,0-3.7-0.5-4.7-1.6c-1.2-1.4-1.2-3-1.2-5.8v-8.7h-1.8c-0.7,0-0.9-0.2-0.9-1v-1.5c0-0.5,0.2-0.8,0.7-0.8h2v-4.1
				c0-0.6,0.2-1,0.8-1.1l3.2-0.4c0.4,0,0.8,0.1,0.8,0.7V27.4z"/>
			<path fill="#FFFFFF" d="M93.1,45.2c0,0.8-0.2,1.1-1,1.1h-2.5c-0.5,0-0.9-0.3-0.9-0.8l0-1c-1.8,1.4-3.9,2.2-6.2,2.2
				c-4.4,0-6.2-2.8-6.2-7V28.3c0-0.7,0.4-0.9,1-0.9H80c0.6,0,1,0.2,1,0.9v10.7c0,2.1,0.5,3.6,2.9,3.6c1.5,0,3.3-0.8,4.5-1.9V28.3
				c0-0.7,0.4-0.9,1-0.9h2.8c0.6,0,1,0.2,1,0.9V45.2z"/>
			<path fill="#FFFFFF" d="M100.6,24.9c-1.3,0-2.6-0.9-2.6-2.4s1.3-2.5,2.6-2.5c1.3,0,2.6,0.9,2.6,2.5
				C103.2,23.9,101.9,24.9,100.6,24.9z M103,45.3c0,0.7-0.3,1-1,1h-2.7c-0.7,0-1-0.3-1-1v-17c0-0.7,0.4-0.9,1-0.9h2.7
				c0.6,0,1,0.2,1,0.9V45.3z"/>
			<path fill="#FFFFFF" d="M113.7,27.4h4.4c0.5,0,0.7,0.2,0.7,0.7v1.8c0,0.5-0.3,0.7-0.8,0.7h-4.4v8.9c0,1.2,0.1,2,0.5,2.6
				c0.4,0.5,0.9,0.8,1.8,0.8c1,0,1.8-0.2,2.5-0.5c0.4-0.1,0.8-0.2,0.9,0.4l0.4,1.9c0.1,0.5-0.1,0.8-0.5,1c-1.2,0.5-2.8,0.9-4.4,0.9
				c-2,0-3.7-0.5-4.7-1.6c-1.2-1.4-1.2-3-1.2-5.8v-8.7h-1.8c-0.7,0-0.9-0.2-0.9-1v-1.5c0-0.5,0.2-0.8,0.7-0.8h2v-4.1
				c0-0.6,0.2-1,0.8-1.1l3.2-0.4c0.4,0,0.8,0.1,0.8,0.7V27.4z"/>
			<path fill="#FFFFFF" d="M134.8,45.9c0,0.3-0.1,0.4-0.3,0.4h-0.9c-0.2,0-0.3-0.1-0.3-0.4v-26c0-0.3,0.1-0.4,0.4-0.4h4.3
				c5.1,0,9,2,9,7.7c0,5.5-3.9,8.2-8.8,8.2h-3.3V45.9z M138,34.1c4.2,0,7.3-1.9,7.3-6.9c0-5.4-3.5-6.5-7.7-6.5h-2.7v13.4H138z"/>
			<path fill="#FFFFFF" d="M157.7,27.1c0.2,0,0.4,0,0.6,0c0.2,0,0.3,0.1,0.2,0.3l-0.1,0.6c0,0.2-0.2,0.2-0.4,0.2c-0.2,0-0.3,0-0.7,0
				c-1.9,0-3.4,1.4-4.5,3.5v14.2c0,0.2-0.1,0.4-0.3,0.4h-0.8c-0.2,0-0.3-0.1-0.3-0.4V27.8c0-0.2,0.1-0.4,0.3-0.4h0.7
				c0.3,0,0.4,0.1,0.4,0.4v2.3C154,27.9,156,27.1,157.7,27.1z"/>
			<path fill="#FFFFFF" d="M167.9,46.6c-5.7,0-7.7-4.8-7.7-9.8c0-4.9,2.5-9.7,8-9.7c5.8,0,7.8,4.7,7.8,9.8
				C176,41.8,173.5,46.6,167.9,46.6z M168.1,28.2c-4.7,0-6.5,4.4-6.5,8.5c0,4.1,1.4,8.8,6.3,8.8c4.7,0,6.5-4.4,6.5-8.6
				C174.4,32.8,172.9,28.2,168.1,28.2z"/>
			<path fill="#FFFFFF" d="M179.2,28.5c-0.3,0-0.3,0-0.3-0.3v-0.5c0-0.3,0.1-0.3,0.4-0.3h2.3v-0.8c0-1.5,0-2.5,0.1-3.1
				c0.3-3.3,2.2-5.3,5.3-5.3c0.9,0,2.1,0.2,2.8,0.4c0.2,0.1,0.3,0.2,0.2,0.4l-0.1,0.4c-0.1,0.2-0.2,0.2-0.4,0.2
				c-0.6-0.2-1.6-0.4-2.3-0.4c-3.3,0-4.1,2.3-4.1,6v2.1h5.1c0.3,0,0.3,0.1,0.3,0.3v0.5c0,0.2-0.1,0.3-0.3,0.3H183v17.4
				c0,0.3-0.1,0.4-0.4,0.4h-0.7c-0.2,0-0.4-0.1-0.4-0.4V28.5H179.2z"/>
			<path fill="#FFFFFF" d="M198.5,45.5c1.5,0,3.2-0.3,4.4-0.8c0.2-0.1,0.4-0.1,0.5,0.2l0.2,0.5c0,0.2,0,0.3-0.2,0.4
				c-1.5,0.6-3.7,0.9-5.1,0.9c-5.5,0-8.2-3.9-8.2-9.8c0-5.5,3.1-9.7,8.1-9.7c4.1,0,6.5,3.3,6.5,7.9v1.2c0,0.4-0.2,0.5-0.6,0.5h-12.5
				C191.6,41.1,193.3,45.5,198.5,45.5z M203.4,35.7v-0.8c0-3.4-1.4-6.7-5.3-6.7c-4.3,0-6.2,3.6-6.5,7.4H203.4z"/>
			<path fill="#FFFFFF" d="M212.8,46.6c-1.7,0-3.5-0.5-4.4-1.1c-0.2-0.1-0.2-0.2-0.2-0.4l0.2-0.5c0.1-0.2,0.2-0.2,0.4-0.1
				c1.3,0.6,2.8,1.1,4.1,1.1c2.8,0,4.9-1.4,4.9-4c0-2.4-1.7-3.4-3.6-4.2l-2.3-1c-2.2-1-3.6-2.4-3.6-4.5c0-2.9,2.4-4.6,5.6-4.6
				c1.3,0,2.7,0.2,4,0.9c0.3,0.1,0.3,0.3,0.2,0.5l-0.2,0.4c-0.1,0.2-0.3,0.2-0.5,0.2c-1.2-0.5-2.5-0.8-3.6-0.8
				c-2.5,0-4.2,1.2-4.2,3.3c0,2.1,1.3,3,3.1,3.8l2.4,1.1c2.1,0.9,4,2.5,4,5C219.1,44.4,216.7,46.6,212.8,46.6z"/>
			<path fill="#FFFFFF" d="M226.9,46.6c-1.7,0-3.5-0.5-4.4-1.1c-0.2-0.1-0.2-0.2-0.2-0.4l0.2-0.5c0.1-0.2,0.2-0.2,0.4-0.1
				c1.3,0.6,2.8,1.1,4.1,1.1c2.8,0,4.9-1.4,4.9-4c0-2.4-1.7-3.4-3.6-4.2l-2.3-1c-2.2-1-3.6-2.4-3.6-4.5c0-2.9,2.4-4.6,5.6-4.6
				c1.3,0,2.7,0.2,4,0.9c0.3,0.1,0.3,0.3,0.2,0.5l-0.2,0.4c-0.1,0.2-0.3,0.2-0.5,0.2c-1.2-0.5-2.5-0.8-3.6-0.8
				c-2.5,0-4.2,1.2-4.2,3.3c0,2.1,1.3,3,3.1,3.8l2.4,1.1c2.1,0.9,4,2.5,4,5C233.2,44.4,230.9,46.6,226.9,46.6z"/>
			<path fill="#FFFFFF" d="M238.8,23.6c-0.6,0-1.1-0.4-1.1-1c0-0.6,0.4-1,1.1-1c0.6,0,1.1,0.5,1.1,1
				C239.8,23.2,239.4,23.6,238.8,23.6z M239.5,45.9c0,0.2-0.1,0.4-0.3,0.4h-0.8c-0.2,0-0.3-0.1-0.3-0.4V27.8c0-0.2,0.1-0.4,0.3-0.4
				h0.8c0.2,0,0.3,0.1,0.3,0.4V45.9z"/>
			<path fill="#FFFFFF" d="M252.5,46.6c-5.7,0-7.7-4.8-7.7-9.8c0-4.9,2.5-9.7,8-9.7c5.8,0,7.8,4.7,7.8,9.8
				C260.6,41.8,258.1,46.6,252.5,46.6z M252.7,28.2c-4.7,0-6.5,4.4-6.5,8.5c0,4.1,1.4,8.8,6.3,8.8c4.7,0,6.5-4.4,6.5-8.6
				C259,32.8,257.5,28.2,252.7,28.2z"/>
			<path fill="#FFFFFF" d="M277.8,34.3c0-2-0.2-3.7-1.2-4.8c-0.7-0.8-1.8-1.2-3.4-1.2c-2.2,0-4.6,1.3-6.3,3.1v14.6
				c0,0.2-0.1,0.4-0.3,0.4h-0.8c-0.2,0-0.3-0.1-0.3-0.4V27.8c0-0.2,0.1-0.4,0.2-0.4h0.9c0.2,0,0.3,0.2,0.3,0.4v2.1
				c1.8-1.7,4-2.8,6.7-2.8c1.8,0,3.2,0.5,4.1,1.4c1.1,1.2,1.6,3,1.6,5.4v12c0,0.2-0.1,0.4-0.3,0.4h-0.8c-0.2,0-0.3-0.1-0.3-0.4V34.3
				z"/>
			<path fill="#FFFFFF" d="M291.2,46.6c-4.7,0-7.1-4.2-7.1-9.4c0-6.5,3.5-10.1,7.6-10.1c2.1,0,4.5,0.9,5.7,3.2v-2.5
				c0-0.2,0.1-0.4,0.4-0.4h0.6c0.3,0,0.4,0.2,0.4,0.4v15.6c0,1.2,0.3,1.9,1.2,1.9h0.2c0.2,0,0.3,0.1,0.3,0.3V46
				c0,0.2-0.1,0.3-0.3,0.3h-0.7c-1.4,0-2.1-1-2.1-2.7v-0.9C296.7,44.3,294.9,46.6,291.2,46.6z M297.4,32.2c-1.2-2.6-3.3-3.9-5.6-3.9
				c-3.7,0-6.2,3.4-6.2,8.8c0,5.4,2.4,8.5,5.7,8.5c3.6,0,5.3-2.4,6.1-5.2V32.2z"/>
			<path fill="#FFFFFF" d="M304.9,19.3c0-0.3,0.1-0.4,0.3-0.5l0.7-0.1c0.2,0,0.4,0,0.4,0.3v26.9c0,0.2-0.1,0.4-0.3,0.4h-0.8
				c-0.2,0-0.3-0.1-0.3-0.4V19.3z"/>
			<path fill="#FFFFFF" d="M328.5,45.9c0,0.2-0.1,0.3-0.3,0.3h-0.9c-0.3,0-0.4-0.1-0.4-0.3V20.8h-7.7c-0.2,0-0.3-0.1-0.3-0.3v-0.8
				c0-0.2,0.1-0.2,0.3-0.2h17.2c0.3,0,0.4,0.1,0.4,0.3l-0.1,0.7c0,0.3-0.2,0.3-0.4,0.3h-7.8V45.9z"/>
			<path fill="#FFFFFF" d="M343.3,46.6c-4.7,0-7.1-4.2-7.1-9.4c0-6.5,3.5-10.1,7.6-10.1c2.1,0,4.5,0.9,5.7,3.2v-2.5
				c0-0.2,0.1-0.4,0.4-0.4h0.6c0.3,0,0.4,0.2,0.4,0.4v15.6c0,1.2,0.3,1.9,1.2,1.9h0.2c0.2,0,0.3,0.1,0.3,0.3V46
				c0,0.2-0.1,0.3-0.3,0.3h-0.7c-1.4,0-2.1-1-2.1-2.7v-0.9C348.7,44.3,346.9,46.6,343.3,46.6z M349.4,32.2c-1.2-2.6-3.3-3.9-5.6-3.9
				c-3.7,0-6.2,3.4-6.2,8.8c0,5.4,2.4,8.5,5.7,8.5c3.6,0,5.3-2.4,6.1-5.2V32.2z"/>
			<path fill="#FFFFFF" d="M356.8,45.9c-0.1,0.2-0.3,0.3-0.6,0.3h-0.7c-0.2,0-0.3-0.2-0.1-0.4l6-9.4l-5.2-8.6
				c-0.1-0.2,0-0.4,0.2-0.4h0.7c0.4,0,0.5,0.2,0.6,0.4l4.4,7.4l4.7-7.4c0.2-0.2,0.3-0.3,0.5-0.3h0.7c0.3,0,0.3,0.2,0.2,0.4l-5.4,8.4
				l5.8,9.5c0.1,0.2,0.2,0.4-0.2,0.4h-0.8c-0.3,0-0.4-0.1-0.5-0.3l-5.1-8.4L356.8,45.9z"/>
		</g>
	</g>
	<g>
		<g>
			<path fill="#FFFFFF" d="M140,72.8c0.2,0,0.4,0.1,0.4,0.3v0.8c0,0.2-0.1,0.3-0.4,0.3h-6.2c-0.2,0-0.4-0.1-0.4-0.4V61.4
				c0-0.2,0.1-0.4,0.4-0.4h1c0.3,0,0.4,0.1,0.4,0.4v11.4H140z"/>
			<path fill="#FFFFFF" d="M148.1,72.8c-0.4,0.8-1.7,1.6-2.9,1.6c-2.6,0-3.8-2.2-3.8-4.7c0-3.2,1.9-5,4.1-5c1,0,2,0.4,2.6,1.2l0-0.6
				c0-0.2,0.1-0.3,0.4-0.3h0.8c0.2,0,0.4,0.1,0.4,0.4v6.7c0,0.7,0,1,0.4,1h0.1c0.2,0,0.3,0.1,0.3,0.3V74c0,0.2-0.1,0.3-0.3,0.3h-0.8
				C148.5,74.2,148.1,73.6,148.1,72.8L148.1,72.8z M148,67.5c-0.5-0.9-1.4-1.4-2.3-1.4c-1.5,0-2.6,1.3-2.6,3.6c0,2.1,1,3.4,2.4,3.4
				c1.2,0,2.2-1,2.6-1.9V67.5z"/>
			<path fill="#FFFFFF" d="M158.8,66.3c-0.1,0.2-0.2,0.2-0.4,0.2c-0.6-0.3-1.2-0.4-2-0.4c-1.8,0-3,1.4-3,3.5c0,2,0.8,3.6,2.9,3.6
				c0.8,0,1.4-0.1,2.1-0.4c0.1-0.1,0.3-0.1,0.4,0.2l0.2,0.5c0.1,0.2,0,0.3-0.2,0.5c-0.8,0.4-1.7,0.5-2.6,0.5c-3,0-4.5-2-4.5-4.8
				c0-2.8,1.7-4.9,4.6-4.9c0.9,0,1.8,0.2,2.5,0.6c0.2,0.1,0.2,0.2,0.2,0.4L158.8,66.3z"/>
			<path fill="#FFFFFF" d="M161.9,69.9c0.1,1.8,1.1,3.2,3,3.2c0.8,0,1.7-0.1,2.4-0.4c0.2-0.1,0.3-0.1,0.4,0.1l0.2,0.6
				c0.1,0.2,0,0.3-0.2,0.4c-0.8,0.4-2.1,0.6-3,0.6c-2.9,0-4.4-2-4.4-4.8c0-2.8,1.6-4.8,4.4-4.8c2.5,0,3.8,1.8,3.8,4.1v0.5
				c0,0.4-0.1,0.5-0.6,0.5H161.9z M166.7,68.7v-0.3c0-1.3-0.7-2.4-2.2-2.4c-1.6,0-2.5,1.2-2.6,2.7H166.7z"/>
			<path fill="#FFFFFF" d="M171.9,73.8c0,0.3-0.1,0.4-0.4,0.4h-0.9c-0.2,0-0.4-0.1-0.4-0.4v-8.5c0-0.3,0.1-0.4,0.4-0.4h0.8
				c0.2,0,0.4,0.1,0.4,0.3l0,0.7c0.5-0.6,1.2-1.2,2.2-1.2c0.4,0,0.7,0.1,0.7,0.3l-0.1,0.9c0,0.1-0.1,0.2-0.3,0.2
				c-0.1,0-0.3-0.1-0.6-0.1c-0.7,0-1.4,0.4-1.9,1.2V73.8z"/>
			<path fill="#FFFFFF" d="M176.8,62.8c0-0.2,0.1-0.4,0.3-0.4l1-0.1c0.3,0,0.4,0.1,0.4,0.3V65h2.2c0.2,0,0.3,0.1,0.3,0.3v0.6
				c0,0.2-0.1,0.3-0.3,0.3h-2.2v5.2c0,1.2,0.2,1.9,1.4,1.9c0.4,0,0.8-0.1,1.2-0.2c0.2-0.1,0.3,0,0.4,0.2l0.2,0.6
				c0.1,0.2,0,0.3-0.2,0.4c-0.4,0.2-1.2,0.3-1.8,0.3c-2.2,0-2.7-1.1-2.7-3v-5.3h-1.1c-0.2,0-0.3-0.1-0.3-0.3v-0.6
				c0-0.2,0.1-0.3,0.3-0.3h1.1V62.8z"/>
			<path fill="#FFFFFF" d="M184.1,69.9c0.1,1.8,1.1,3.2,3,3.2c0.8,0,1.7-0.1,2.4-0.4c0.2-0.1,0.3-0.1,0.4,0.1l0.2,0.6
				c0.1,0.2,0,0.3-0.2,0.4c-0.8,0.4-2.1,0.6-3,0.6c-2.9,0-4.4-2-4.4-4.8c0-2.8,1.6-4.8,4.4-4.8c2.5,0,3.8,1.8,3.8,4.1v0.5
				c0,0.4-0.1,0.5-0.6,0.5H184.1z M189,68.7v-0.3c0-1.3-0.7-2.4-2.2-2.4c-1.6,0-2.5,1.2-2.6,2.7H189z"/>
			<path fill="#FFFFFF" d="M197.5,74.4c0,0.1,0,0.2-0.2,0.2H197c-0.1,0-0.2-0.1-0.2-0.2V60.8c0-0.1,0-0.2,0.1-0.2h0.4
				c0.1,0,0.1,0.1,0.1,0.2V74.4z"/>
			<path fill="#FFFFFF" d="M207.5,69.2h-1.1v4.6c0,0.2-0.1,0.4-0.4,0.4h-1c-0.3,0-0.4-0.1-0.4-0.4V61.5c0-0.3,0.2-0.4,0.4-0.4h2.5
				c2.9,0,5,1.1,5,4C212.4,68,210.4,69.2,207.5,69.2z M206.3,67.9h1.2c1.9,0,3.1-0.7,3.1-2.8c0-2.1-1.4-2.7-3.3-2.7h-1.1V67.9z"/>
			<path fill="#FFFFFF" d="M216,73.8c0,0.3-0.1,0.4-0.4,0.4h-0.9c-0.2,0-0.4-0.1-0.4-0.4v-8.5c0-0.3,0.1-0.4,0.4-0.4h0.8
				c0.2,0,0.4,0.1,0.4,0.3l0,0.7c0.5-0.6,1.2-1.2,2.2-1.2c0.4,0,0.7,0.1,0.7,0.3l-0.1,0.9c0,0.1-0.1,0.2-0.3,0.2
				c-0.1,0-0.3-0.1-0.6-0.1c-0.7,0-1.4,0.4-1.9,1.2V73.8z"/>
			<path fill="#FFFFFF" d="M223.8,74.4c-3,0-4.3-2.1-4.3-4.9c0-2.7,1.6-4.8,4.4-4.8c3,0,4.3,2.1,4.3,4.8
				C228.2,72.3,226.6,74.4,223.8,74.4z M223.9,66c-2.1,0-2.7,1.8-2.7,3.5c0,1.8,0.6,3.6,2.6,3.6c2,0,2.7-1.8,2.7-3.5
				C226.5,67.8,225.9,66,223.9,66z"/>
			<path fill="#FFFFFF" d="M236.2,70.8c0-1.1-0.6-1.6-1.7-2.2l-2.4-1.3c-1.3-0.7-2.1-1.7-2.1-3.1c0-2.2,2.1-3.4,4.1-3.4
				c1.1,0,2.2,0.2,3.1,0.6c0.2,0.1,0.3,0.2,0.2,0.5l-0.3,0.8c-0.1,0.2-0.2,0.3-0.5,0.2c-0.8-0.4-1.7-0.6-2.5-0.6
				c-1.1,0-2.3,0.5-2.3,1.8c0,1,0.6,1.5,1.5,2l2.1,1.1c1.5,0.8,2.6,1.8,2.6,3.5c0,2.5-2.1,3.8-4.4,3.8c-1,0-2.2-0.2-3.2-0.5
				c-0.2-0.1-0.3-0.3-0.2-0.5l0.2-0.9c0.1-0.2,0.3-0.3,0.5-0.2c0.9,0.3,1.8,0.6,2.7,0.6C234.8,72.9,236.2,72.3,236.2,70.8z"/>
			<path fill="#FFFFFF" d="M241.2,69.9c0.1,1.8,1.1,3.2,3,3.2c0.8,0,1.7-0.1,2.4-0.4c0.2-0.1,0.3-0.1,0.4,0.1l0.2,0.6
				c0.1,0.2,0,0.3-0.2,0.4c-0.8,0.4-2.1,0.6-3,0.6c-2.9,0-4.4-2-4.4-4.8c0-2.8,1.6-4.8,4.4-4.8c2.5,0,3.8,1.8,3.8,4.1v0.5
				c0,0.4-0.1,0.5-0.6,0.5H241.2z M246,68.7v-0.3c0-1.3-0.7-2.4-2.2-2.4c-1.6,0-2.5,1.2-2.6,2.7H246z"/>
			<path fill="#FFFFFF" d="M251.2,73.8c0,0.3-0.1,0.4-0.4,0.4H250c-0.2,0-0.4-0.1-0.4-0.4v-8.5c0-0.3,0.1-0.4,0.4-0.4h0.8
				c0.2,0,0.4,0.1,0.4,0.3l0,0.7c0.5-0.6,1.2-1.2,2.2-1.2c0.4,0,0.7,0.1,0.7,0.3L254,66c0,0.1-0.1,0.2-0.3,0.2
				c-0.1,0-0.3-0.1-0.6-0.1c-0.7,0-1.4,0.4-1.9,1.2V73.8z"/>
			<path fill="#FFFFFF" d="M257.6,62.7c0,0.6-0.4,0.9-1,0.9c-0.6,0-1-0.4-1-0.9c0-0.6,0.4-0.9,1-0.9
				C257.2,61.8,257.6,62.2,257.6,62.7z M257.5,73.8c0,0.3-0.1,0.4-0.4,0.4h-0.9c-0.2,0-0.4-0.1-0.4-0.4v-8.5c0-0.3,0.1-0.4,0.4-0.4
				h0.9c0.2,0,0.4,0.1,0.4,0.4V73.8z"/>
			<path fill="#FFFFFF" d="M261.4,69.9c0.1,1.8,1.1,3.2,3,3.2c0.8,0,1.7-0.1,2.4-0.4c0.2-0.1,0.3-0.1,0.4,0.1l0.2,0.6
				c0.1,0.2,0,0.3-0.2,0.4c-0.8,0.4-2.1,0.6-3,0.6c-2.9,0-4.4-2-4.4-4.8c0-2.8,1.6-4.8,4.4-4.8c2.5,0,3.8,1.8,3.8,4.1v0.5
				c0,0.4-0.1,0.5-0.6,0.5H261.4z M266.2,68.7v-0.3c0-1.3-0.7-2.4-2.2-2.4c-1.6,0-2.5,1.2-2.6,2.7H266.2z"/>
			<path fill="#FFFFFF" d="M271.2,69.7c-1.1-0.4-1.9-1.2-1.9-2.4c0-1.7,1.5-2.6,3.2-2.6c0.8,0,1.6,0.1,2.5,0.5
				c0.2,0.1,0.2,0.2,0.2,0.4l-0.2,0.6c-0.1,0.2-0.2,0.2-0.4,0.2c-0.6-0.2-1.4-0.5-2-0.5c-1.1,0-1.6,0.6-1.6,1.2c0,0.7,0.4,1,1.2,1.3
				l1.5,0.6c1.1,0.4,1.9,1.2,1.9,2.4c0,1.8-1.5,2.9-3.5,2.9c-1,0-2-0.3-2.6-0.6c-0.2-0.1-0.2-0.2-0.2-0.4l0.2-0.7
				c0.1-0.2,0.2-0.2,0.4-0.2c0.7,0.3,1.6,0.6,2.2,0.6c1.1,0,1.9-0.6,1.9-1.5c0-0.7-0.5-1.2-1.4-1.5L271.2,69.7z"/>
			<path fill="#FFFFFF" d="M282.4,74.4c0,0.1,0,0.2-0.2,0.2H282c-0.1,0-0.2-0.1-0.2-0.2V60.8c0-0.1,0-0.2,0.1-0.2h0.4
				c0.1,0,0.1,0.1,0.1,0.2V74.4z"/>
			<path fill="#FFFFFF" d="M288.7,62.4c-0.2,0-0.4-0.1-0.4-0.3v-0.8c0-0.2,0.1-0.3,0.4-0.3h9.3c0.3,0,0.4,0.1,0.3,0.3l-0.1,0.8
				c0,0.2-0.2,0.3-0.4,0.3h-3.6v11.4c0,0.2-0.1,0.4-0.4,0.4h-1c-0.3,0-0.4-0.1-0.4-0.4V62.4H288.7z"/>
			<path fill="#FFFFFF" d="M304.3,72.8c-0.4,0.8-1.7,1.6-2.9,1.6c-2.6,0-3.8-2.2-3.8-4.7c0-3.2,1.9-5,4.1-5c1,0,2,0.4,2.6,1.2l0-0.6
				c0-0.2,0.1-0.3,0.4-0.3h0.8c0.2,0,0.4,0.1,0.4,0.4v6.7c0,0.7,0,1,0.4,1h0.1c0.2,0,0.3,0.1,0.3,0.3V74c0,0.2-0.1,0.3-0.3,0.3h-0.8
				C304.7,74.2,304.3,73.6,304.3,72.8L304.3,72.8z M304.2,67.5c-0.5-0.9-1.4-1.4-2.3-1.4c-1.5,0-2.6,1.3-2.6,3.6
				c0,2.1,1,3.4,2.4,3.4c1.2,0,2.2-1,2.6-1.9V67.5z"/>
			<path fill="#FFFFFF" d="M311.9,68.2l2-2.9c0.1-0.2,0.2-0.3,0.5-0.3h1c0.3,0,0.3,0.2,0.2,0.4l-2.9,3.9l3.1,4.6
				c0.2,0.2,0.1,0.4-0.2,0.4h-1.1c-0.3,0-0.5-0.1-0.6-0.3l-2.1-3.4h0l-2.2,3.5c-0.1,0.2-0.3,0.3-0.6,0.3h-1.1
				c-0.2,0-0.2-0.2-0.1-0.4l3.2-4.4l-2.7-4.1c-0.1-0.2-0.1-0.4,0.2-0.4h1.2c0.2,0,0.4,0.1,0.5,0.3L311.9,68.2L311.9,68.2z"/>
			<path fill="#FFFFFF" d="M327.1,74.4c-3.4,0-5.4-2.6-5.4-6.8c0-4.2,2.3-6.9,5.6-6.9c3.5,0,5.5,2.8,5.5,6.8
				C332.8,71.9,330.3,74.4,327.1,74.4z M327.3,62.3c-2.2,0-3.7,2.2-3.7,5.4c0,3.4,1.3,5.4,3.6,5.4c2.2,0,3.7-2.1,3.7-5.4
				C330.9,64.2,329.6,62.3,327.3,62.3z"/>
			<path fill="#FFFFFF" d="M336.6,73.8c0,0.3-0.1,0.4-0.4,0.4h-0.9c-0.2,0-0.4-0.1-0.4-0.4v-8.5c0-0.3,0.1-0.4,0.4-0.4h0.8
				c0.2,0,0.4,0.1,0.4,0.3l0,0.6c0.9-0.7,2-1.2,3.1-1.2c2.2,0,3,1.3,3,3.4v5.6c0,0.3-0.1,0.4-0.4,0.4h-0.9c-0.2,0-0.4-0.1-0.4-0.4
				v-5.4c0-1.4-0.3-2.3-1.9-2.3c-0.9,0-2,0.5-2.6,1.1V73.8z"/>
			<path fill="#FFFFFF" d="M346.9,73.8c0,0.3-0.1,0.4-0.4,0.4h-0.9c-0.2,0-0.4-0.1-0.4-0.4V61.1c0-0.2,0.1-0.4,0.3-0.4l1-0.1
				c0.3,0,0.4,0.1,0.4,0.3V73.8z"/>
			<path fill="#FFFFFF" d="M351.5,62.7c0,0.6-0.4,0.9-1,0.9c-0.6,0-1-0.4-1-0.9c0-0.6,0.4-0.9,1-0.9C351,61.8,351.5,62.2,351.5,62.7
				z M351.3,73.8c0,0.3-0.1,0.4-0.4,0.4H350c-0.2,0-0.4-0.1-0.4-0.4v-8.5c0-0.3,0.1-0.4,0.4-0.4h0.9c0.2,0,0.4,0.1,0.4,0.4V73.8z"/>
			<path fill="#FFFFFF" d="M355.6,73.8c0,0.3-0.1,0.4-0.4,0.4h-0.9c-0.2,0-0.4-0.1-0.4-0.4v-8.5c0-0.3,0.1-0.4,0.4-0.4h0.8
				c0.2,0,0.4,0.1,0.4,0.3l0,0.6c0.9-0.7,2-1.2,3.1-1.2c2.2,0,3,1.3,3,3.4v5.6c0,0.3-0.1,0.4-0.4,0.4h-0.9c-0.2,0-0.4-0.1-0.4-0.4
				v-5.4c0-1.4-0.3-2.3-1.9-2.3c-0.9,0-2,0.5-2.6,1.1V73.8z"/>
			<path fill="#FFFFFF" d="M365.5,69.9c0.1,1.8,1.1,3.2,3,3.2c0.8,0,1.7-0.1,2.4-0.4c0.2-0.1,0.3-0.1,0.4,0.1l0.2,0.6
				c0.1,0.2,0,0.3-0.2,0.4c-0.8,0.4-2.1,0.6-3,0.6c-2.9,0-4.4-2-4.4-4.8c0-2.8,1.6-4.8,4.4-4.8c2.5,0,3.8,1.8,3.8,4.1v0.5
				c0,0.4-0.1,0.5-0.6,0.5H365.5z M370.4,68.7v-0.3c0-1.3-0.7-2.4-2.2-2.4c-1.6,0-2.5,1.2-2.6,2.7H370.4z"/>
		</g>
	</g>
</g>
</svg>
